<svg width="961" height="157" viewBox="0 0 961 157" fill="none" xmlns="http://www.w3.org/2000/svg">
<path fill-rule="evenodd" clip-rule="evenodd" d="M660.391 0.164993L0.5 0.164993V156.9H960.5V0.164993L709.258 0.164993C707.985 2.00433 706.516 3.62777 704.853 5.03531C699.89 9.34551 693.228 11.5006 684.869 11.5006C676.51 11.5006 669.784 9.34551 664.69 5.03531C663.069 3.62777 661.636 2.00433 660.391 0.164993ZM694.14 0.164993H675.488C677.914 1.71391 681.041 2.48837 684.869 2.48837C688.697 2.48837 691.788 1.71391 694.14 0.164993ZM637.849 25.019V132.186H652.347L717.588 45.5904V132.186H732.086V25.019H717.588L652.347 111.615V25.019H637.849ZM325.025 78.7006C325.025 70.6027 326.397 63.0925 329.14 56.17C332.013 49.2476 335.997 43.3047 341.091 38.3414C346.185 33.3782 352.193 29.5251 359.115 26.7822C366.038 23.9088 373.613 22.472 381.842 22.472C389.678 22.472 396.927 23.9088 403.589 26.7822C410.38 29.6557 416.193 33.6394 421.025 38.7333C425.989 43.6965 429.842 49.6394 432.585 56.5618C435.458 63.3537 436.895 70.7986 436.895 78.8965C436.895 86.9945 435.523 94.4394 432.78 101.231C430.038 108.023 426.25 113.901 421.417 118.864C416.585 123.827 410.772 127.746 403.98 130.619C397.319 133.362 390.07 134.733 382.234 134.733C374.005 134.733 366.364 133.362 359.311 130.619C352.389 127.746 346.38 123.827 341.287 118.864C336.193 113.77 332.209 107.827 329.336 101.035C326.462 94.1129 325.025 86.668 325.025 78.7006ZM381.842 121.411C387.719 121.411 393.14 120.366 398.103 118.276C403.066 116.186 407.311 113.313 410.838 109.656C414.364 105.868 417.107 101.362 419.066 96.1374C421.156 90.9129 422.201 85.2312 422.201 79.0925C422.201 72.8231 421.156 67.0108 419.066 61.6557C417.107 56.3006 414.234 51.7292 410.446 47.9414C406.789 44.1537 402.413 41.2149 397.319 39.1251C392.225 36.9047 386.674 35.7945 380.666 35.7945C374.789 35.7945 369.368 36.9047 364.405 39.1251C359.442 41.2149 355.132 44.219 351.474 48.1374C347.817 51.9251 344.944 56.4965 342.854 61.8516C340.764 67.0761 339.719 72.7578 339.719 78.8965C339.719 85.0353 340.764 90.7169 342.854 95.9414C344.944 101.035 347.883 105.476 351.67 109.264C355.458 113.052 359.899 116.056 364.993 118.276C370.217 120.366 375.834 121.411 381.842 121.411ZM228.915 132.186V25.019H243.413V71.0598H307.674V25.019H322.172V132.186H307.674V84.1863H243.413V132.186H228.915ZM439.887 25.019V132.186H485.732C491.479 132.186 496.769 131.403 501.601 129.835C506.434 128.268 510.614 126.048 514.14 123.174C517.667 120.301 520.41 116.97 522.369 113.182C524.328 109.264 525.308 104.954 525.308 100.252C525.308 94.2435 523.61 89.0843 520.214 84.7741C516.948 80.4639 511.985 77.068 505.324 74.5863C509.503 72.7578 512.965 69.819 515.708 65.77C518.45 61.721 519.822 57.5414 519.822 53.2312C519.822 44.3496 516.557 37.4272 510.026 32.4639C503.495 27.5006 494.418 25.019 482.793 25.019H439.887ZM480.442 69.2965H454.385V38.1455H480.442C488.932 38.1455 495.267 39.4516 499.446 42.0639C503.757 44.5455 505.912 48.268 505.912 53.2312C505.912 58.4557 503.691 62.4394 499.25 65.1823C494.94 67.9251 488.671 69.2965 480.442 69.2965ZM482.01 119.06H454.385V82.4231H482.01C491.544 82.4231 498.663 83.9251 503.365 86.9292C508.197 89.8027 510.614 94.2435 510.614 100.252C510.614 106.39 508.132 111.092 503.169 114.358C498.336 117.492 491.283 119.06 482.01 119.06ZM522.987 78.7006C522.987 70.6027 524.359 63.0925 527.101 56.17C529.975 49.2476 533.959 43.3047 539.052 38.3414C544.146 33.3782 550.154 29.5251 557.077 26.7822C563.999 23.9088 571.575 22.472 579.803 22.472C587.64 22.472 594.889 23.9088 601.55 26.7822C608.342 29.6557 614.154 33.6394 618.987 38.7333C623.95 43.6965 627.803 49.6394 630.546 56.5618C633.42 63.3537 634.857 70.7986 634.857 78.8965C634.857 86.9945 633.485 94.4394 630.742 101.231C627.999 108.023 624.212 113.901 619.379 118.864C614.546 123.827 608.734 127.746 601.942 130.619C595.281 133.362 588.032 134.733 580.195 134.733C571.967 134.733 564.326 133.362 557.273 130.619C550.35 127.746 544.342 123.827 539.248 118.864C534.154 113.77 530.171 107.827 527.297 101.035C524.424 94.1129 522.987 86.668 522.987 78.7006ZM579.803 121.411C585.681 121.411 591.101 120.366 596.065 118.276C601.028 116.186 605.273 113.313 608.799 109.656C612.326 105.868 615.069 101.362 617.028 96.1374C619.118 90.9129 620.163 85.2312 620.163 79.0925C620.163 72.8231 619.118 67.0108 617.028 61.6557C615.069 56.3006 612.195 51.7292 608.408 47.9414C604.75 44.1537 600.375 41.2149 595.281 39.1251C590.187 36.9047 584.636 35.7945 578.628 35.7945C572.75 35.7945 567.33 36.9047 562.367 39.1251C557.403 41.2149 553.093 44.219 549.436 48.1374C545.779 51.9251 542.905 56.4965 540.816 61.8516C538.726 67.0761 537.681 72.7578 537.681 78.8965C537.681 85.0353 538.726 90.7169 540.816 95.9414C542.905 101.035 545.844 105.476 549.632 109.264C553.42 113.052 557.861 116.056 562.954 118.276C568.179 120.366 573.795 121.411 579.803 121.411Z" fill="#262696"/>
</svg>
