<svg width="961" height="157" viewBox="0 0 961 157" fill="none" xmlns="http://www.w3.org/2000/svg">
<path fill-rule="evenodd" clip-rule="evenodd" d="M960.49 0.158867H0.490234V156.894H960.49V0.158867ZM465.024 101.155H450.33C450.592 105.857 451.767 110.298 453.857 114.477C455.947 118.526 458.755 122.053 462.281 125.057C465.938 128.061 470.118 130.412 474.82 132.11C479.653 133.808 484.812 134.657 490.298 134.657C495.914 134.657 501.138 133.808 505.971 132.11C510.804 130.281 514.983 127.865 518.51 124.861C522.167 121.857 525.041 118.33 527.13 114.281C529.22 110.232 530.265 105.857 530.265 101.155C530.265 94.363 528.436 88.7466 524.779 84.3058C521.253 79.7344 516.028 76.4691 509.106 74.5099V73.9221C514.2 72.0936 518.053 69.3507 520.665 65.6936C523.277 61.9058 524.583 57.3344 524.583 51.9793C524.583 47.7997 523.669 43.9466 521.841 40.4201C520.143 36.763 517.726 33.6283 514.592 31.016C511.457 28.2732 507.8 26.1834 503.62 24.7466C499.44 23.1793 494.934 22.3956 490.102 22.3956C485.4 22.3956 480.959 23.1793 476.779 24.7466C472.73 26.1834 469.138 28.2079 466.004 30.8201C463 33.4323 460.583 36.567 458.755 40.2242C456.926 43.8813 455.881 47.7997 455.62 51.9793H470.314C470.706 47.2772 472.73 43.4242 476.387 40.4201C480.045 37.416 484.551 35.914 489.906 35.914C495.522 35.914 500.224 37.4813 504.012 40.616C507.93 43.7507 509.889 47.5385 509.889 51.9793C509.889 57.7262 507.473 62.1017 502.641 65.1058C497.808 68.1099 490.82 69.6119 481.677 69.6119V81.563C492.387 81.563 500.681 83.3262 506.559 86.8528C512.567 90.2487 515.571 95.016 515.571 101.155C515.571 104.028 514.918 106.706 513.612 109.187C512.306 111.538 510.477 113.628 508.126 115.457C505.906 117.285 503.228 118.722 500.094 119.767C496.959 120.812 493.628 121.334 490.102 121.334C483.179 121.334 477.367 119.441 472.665 115.653C467.963 111.865 465.416 107.032 465.024 101.155ZM222.953 132.11L268.798 77.0568L222.953 24.9425H241.174L283.492 73.5303V24.9425H297.99V73.5303L340.308 24.9425H354.248H358.529H368.746V111.538L433.986 24.9425H448.484V132.11H433.986V45.514L368.746 132.11H358.529H354.248H340.308L297.99 80.7793V132.11H283.492V80.7793L241.174 132.11H222.953ZM312.684 77.0568L354.248 29.8091V126.969L312.684 77.0568ZM532.12 132.11V24.9425H546.618V70.9834H610.879V24.9425H625.377V132.11H610.879V84.1099H546.618V132.11H532.12ZM632.345 24.9425V132.11H646.843L712.083 45.514V132.11H726.581V24.9425H712.083L646.843 111.538V24.9425H632.345Z" fill="#262696"/>
</svg>
