<svg width="961" height="158" viewBox="0 0 961 158" fill="none" xmlns="http://www.w3.org/2000/svg">
<path fill-rule="evenodd" clip-rule="evenodd" d="M638.604 0.765198L0.0273438 0.765198V157.5H960.027V0.765198L687.374 0.765198C686.112 2.57562 684.66 4.17562 683.018 5.5652C678.054 9.8754 671.393 12.0305 663.034 12.0305C654.675 12.0305 647.948 9.8754 642.854 5.5652C641.254 4.17562 639.837 2.57562 638.604 0.765198ZM672.197 0.765198H653.764C656.174 2.26724 659.264 3.01826 663.034 3.01826C666.803 3.01826 669.858 2.26724 672.197 0.765198ZM616.013 25.5489V132.716H630.511L695.752 46.1203V132.716H710.25V25.5489H695.752L630.511 112.145V25.5489H616.013ZM395.475 56.6999C392.732 63.6223 391.361 71.1326 391.361 79.2305C391.361 87.1979 392.798 94.6428 395.671 101.565C398.545 108.357 402.528 114.3 407.622 119.394C412.716 124.357 418.724 128.275 425.647 131.149C432.7 133.892 440.34 135.263 448.569 135.263C456.406 135.263 463.655 133.892 470.316 131.149C477.108 128.275 482.92 124.357 487.753 119.394C492.585 114.431 496.373 108.553 499.116 101.761C500.913 97.3113 502.121 92.5811 502.741 87.5706C503.42 92.2384 504.646 96.7073 506.419 100.977C509.423 107.769 513.472 113.712 518.565 118.806C523.659 123.9 529.602 127.949 536.394 130.953C543.317 133.826 550.761 135.263 558.729 135.263C564.606 135.263 570.223 134.349 575.578 132.52C581.063 130.692 586.027 128.145 590.468 124.879C595.039 121.484 599.088 117.5 602.614 112.928C606.141 108.226 608.884 103.067 610.843 97.4509H595.757C592.753 104.765 587.79 110.708 580.867 115.279C574.076 119.72 566.565 121.941 558.337 121.941C552.851 121.941 547.627 120.961 542.663 119.002C537.7 117.043 533.325 114.365 529.537 110.969C525.88 107.443 522.876 103.394 520.525 98.8223C518.174 94.2509 516.867 89.2877 516.606 83.9326H613.39C613.651 82.8877 613.847 81.9081 613.978 80.9938C614.108 79.9489 614.174 78.904 614.174 77.8591C614.174 70.4142 612.672 63.3611 609.668 56.6999C606.663 50.0387 602.549 44.2264 597.325 39.2632C592.231 34.2999 586.223 30.3815 579.3 27.5081C572.508 24.504 565.259 23.0019 557.553 23.0019C549.847 23.0019 542.598 24.4387 535.806 27.3121C529.014 30.1856 523.137 34.1693 518.174 39.2632C513.21 44.2264 509.292 50.104 506.419 56.8958C504.548 61.2329 503.286 65.8192 502.633 70.6546C501.962 65.8763 500.724 61.3553 498.92 57.0917C496.177 50.1693 492.324 44.2264 487.361 39.2632C482.528 34.1693 476.716 30.1856 469.924 27.3121C463.263 24.4387 456.014 23.0019 448.177 23.0019C439.949 23.0019 432.373 24.4387 425.451 27.3121C418.528 30.055 412.52 33.9081 407.426 38.8713C402.332 43.8346 398.349 49.7775 395.475 56.6999ZM464.438 118.806C459.475 120.896 454.055 121.941 448.177 121.941C442.169 121.941 436.553 120.896 431.328 118.806C426.234 116.586 421.794 113.582 418.006 109.794C414.218 106.006 411.279 101.565 409.189 96.4713C407.1 91.2468 406.055 85.5652 406.055 79.4264C406.055 73.2877 407.1 67.606 409.189 62.3815C411.279 57.0264 414.153 52.455 417.81 48.6672C421.467 44.7489 425.777 41.7448 430.74 39.655C435.704 37.4346 441.124 36.3244 447.002 36.3244C453.01 36.3244 458.561 37.4346 463.655 39.655C468.749 41.7448 473.124 44.6836 476.781 48.4713C480.569 52.2591 483.443 56.8305 485.402 62.1856C487.492 67.5407 488.536 73.353 488.536 79.6224C488.536 85.7611 487.492 91.4428 485.402 96.6673C483.443 101.892 480.7 106.398 477.173 110.186C473.647 113.843 469.402 116.716 464.438 118.806ZM268.923 132.716V38.6754H240.71V25.5489H308.261H311.241H351.167C362.792 25.5489 371.869 28.0305 378.4 32.9938C384.93 37.957 388.196 44.8795 388.196 53.7611C388.196 58.0713 386.824 62.2509 384.081 66.2999C381.338 70.3489 377.877 73.2877 373.698 75.1162C380.359 77.5979 385.322 80.9938 388.587 85.304C391.983 89.6142 393.681 94.7734 393.681 100.782C393.681 105.484 392.702 109.794 390.743 113.712C388.783 117.5 386.04 120.831 382.514 123.704C378.987 126.577 374.808 128.798 369.975 130.365C365.143 131.933 359.853 132.716 354.106 132.716H308.261V38.6754H283.421V132.716H268.923ZM322.759 69.8264H348.816C357.045 69.8264 363.314 68.455 367.624 65.7122C372.065 62.9693 374.285 58.9856 374.285 53.7611C374.285 48.7979 372.13 45.0754 367.82 42.5938C363.64 39.9815 357.306 38.6754 348.816 38.6754H322.759V69.8264ZM322.759 119.59H350.383C359.657 119.59 366.71 118.022 371.543 114.888C376.506 111.622 378.987 106.92 378.987 100.782C378.987 94.7734 376.571 90.3326 371.738 87.4591C367.036 84.455 359.918 82.953 350.383 82.953H322.759V119.59ZM516.998 70.806H599.088C596.606 60.0958 591.643 51.6713 584.198 45.5326C576.884 39.3938 568.002 36.3244 557.553 36.3244C552.459 36.3244 547.627 37.1734 543.055 38.8713C538.615 40.4387 534.631 42.7897 531.104 45.9244C527.578 48.9285 524.574 52.5856 522.092 56.8958C519.741 61.0754 518.043 65.7121 516.998 70.806Z" fill="#262696"/>
</svg>
