<svg width="961" height="157" viewBox="0 0 961 157" fill="none" xmlns="http://www.w3.org/2000/svg">
<path fill-rule="evenodd" clip-rule="evenodd" d="M960.328 0.12323H0.328125V156.858H275.859V27.6366H290.357V46.0529C294.929 39.1305 300.741 33.906 307.794 30.3795C314.978 26.8529 323.206 25.0897 332.48 25.0897C340.447 25.0897 347.892 26.5264 354.814 29.3999C361.737 32.2733 367.68 36.257 372.643 41.3509C377.737 46.3142 381.721 52.257 384.594 59.1795C387.468 65.9713 388.904 73.3509 388.904 81.3182C388.904 89.2856 387.402 96.6652 384.398 103.457C381.525 110.249 377.541 116.192 372.447 121.286C367.353 126.249 361.345 130.167 354.423 133.041C347.5 135.914 340.055 137.351 332.088 137.351C323.076 137.351 315.043 135.588 307.99 132.061C300.937 128.535 295.059 123.31 290.357 116.388V156.858H706.449L701.723 134.804H609.25V27.6366H623.748V121.677H685.07V27.6366H699.568V121.677H713.492V27.6366H727.99V114.233L793.231 27.6366H807.729V129.856L835.24 90.3305C827.142 88.5019 820.742 84.8448 816.04 79.3591C811.469 73.8733 809.183 67.2774 809.183 59.5713C809.183 54.8693 810.032 50.5591 811.73 46.6407C813.558 42.7223 816.105 39.3917 819.371 36.6488C822.636 33.7754 826.489 31.555 830.93 29.9876C835.501 28.4203 840.53 27.6366 846.016 27.6366H889.118V134.804H874.62V91.506H850.913L820.742 134.804H807.729H804.285H793.231V48.208L727.99 134.804H717.005V156.858H960.328V0.12323ZM159.951 59.1795C157.077 65.9713 155.641 73.4162 155.641 81.5142C155.641 89.4815 157.077 96.9264 159.951 103.849C162.824 110.641 166.808 116.518 171.902 121.482C177.126 126.445 183.265 130.363 190.318 133.237C197.371 135.979 205.012 137.351 213.241 137.351C222.383 137.351 230.089 135.718 236.359 132.453C242.628 129.188 248.636 123.702 254.383 115.996V134.804H268.881V27.6366H254.383V46.6407C249.028 39.0652 242.955 33.5795 236.163 30.1835C229.502 26.7876 221.469 25.0897 212.065 25.0897C204.098 25.0897 196.653 26.5264 189.73 29.3999C182.808 32.2733 176.8 36.257 171.706 41.3509C166.743 46.3142 162.824 52.257 159.951 59.1795ZM173.665 97.7754C171.445 92.5509 170.334 86.9346 170.334 80.9264C170.334 75.0489 171.379 69.5631 173.469 64.4693C175.689 59.2448 178.694 54.7386 182.481 50.9509C186.269 47.0325 190.645 43.9631 195.608 41.7427C200.702 39.5223 206.122 38.4121 211.869 38.4121C218.008 38.4121 223.624 39.5223 228.718 41.7427C233.943 43.8325 238.449 46.7713 242.236 50.5591C246.024 54.3468 248.963 58.8529 251.053 64.0774C253.273 69.1713 254.383 74.7876 254.383 80.9264C254.383 87.0652 253.338 92.7468 251.249 97.9713C249.159 103.196 246.22 107.767 242.432 111.686C238.775 115.473 234.4 118.477 229.306 120.698C224.343 122.918 218.922 124.028 213.045 124.028C207.036 124.028 201.42 122.918 196.196 120.698C191.102 118.477 186.596 115.408 182.677 111.49C178.889 107.571 175.885 103 173.665 97.7754ZM72.5405 27.6366V134.804H118.385C124.132 134.804 129.422 134.02 134.255 132.453C139.087 130.886 143.267 128.665 146.794 125.792C150.32 122.918 153.063 119.588 155.022 115.8C156.981 111.882 157.961 107.571 157.961 102.869C157.961 96.8611 156.263 91.7019 152.867 87.3917C149.602 83.0815 144.638 79.6856 137.977 77.204C142.157 75.3754 145.618 72.4366 148.361 68.3876C151.104 64.3386 152.475 60.1591 152.475 55.8488C152.475 46.9672 149.21 40.0448 142.679 35.0815C136.149 30.1182 127.071 27.6366 115.447 27.6366H72.5405ZM113.096 71.9142H87.0385V40.7631H113.096C121.585 40.7631 127.92 42.0693 132.1 44.6815C136.41 47.1631 138.565 50.8856 138.565 55.8488C138.565 61.0733 136.345 65.057 131.904 67.7999C127.594 70.5427 121.324 71.9142 113.096 71.9142ZM114.663 121.677H87.0385V85.0407H114.663C124.198 85.0407 131.316 86.5427 136.018 89.5468C140.851 92.4203 143.267 96.8611 143.267 102.869C143.267 109.008 140.785 113.71 135.822 116.975C130.989 120.11 123.936 121.677 114.663 121.677ZM331.892 124.028C337.9 124.028 343.451 122.984 348.545 120.894C353.77 118.673 358.276 115.669 362.063 111.882C365.851 108.094 368.79 103.653 370.88 98.5591C373.1 93.3346 374.21 87.7182 374.21 81.7101C374.21 75.4407 373.1 69.6937 370.88 64.4693C368.79 59.1142 365.851 54.5427 362.063 50.755C358.276 46.8366 353.77 43.8325 348.545 41.7427C343.321 39.5223 337.574 38.4121 331.304 38.4121C325.427 38.4121 319.941 39.5223 314.847 41.7427C309.753 43.9631 305.312 47.0325 301.525 50.9509C297.737 54.7386 294.733 59.2448 292.512 64.4693C290.423 69.6937 289.378 75.3101 289.378 81.3182C289.378 87.3264 290.423 92.9427 292.512 98.1672C294.733 103.392 297.737 107.963 301.525 111.882C305.443 115.669 309.949 118.673 315.043 120.894C320.268 122.984 325.884 124.028 331.892 124.028ZM391.773 27.6366V134.804H406.271L471.511 48.208V134.804H486.009V27.6366H471.511L406.271 114.233V27.6366H391.773ZM489.031 81.5142C489.031 73.4162 490.468 65.9713 493.341 59.1795C496.214 52.257 500.133 46.3142 505.096 41.3509C510.19 36.257 516.198 32.2733 523.121 29.3999C530.043 26.5264 537.488 25.0897 545.455 25.0897C554.859 25.0897 562.892 26.7876 569.553 30.1835C576.345 33.5795 582.419 39.0652 587.774 46.6407V27.6366H602.272V134.804H587.774V115.996C582.027 123.702 576.019 129.188 569.749 132.453C563.48 135.718 555.774 137.351 546.631 137.351C538.402 137.351 530.761 135.979 523.708 133.237C516.655 130.363 510.517 126.445 505.292 121.482C500.198 116.518 496.214 110.641 493.341 103.849C490.468 96.9264 489.031 89.4815 489.031 81.5142ZM503.725 80.9264C503.725 86.9346 504.835 92.5509 507.055 97.7754C509.276 103 512.28 107.571 516.068 111.49C519.986 115.408 524.492 118.477 529.586 120.698C534.81 122.918 540.427 124.028 546.435 124.028C552.312 124.028 557.733 122.918 562.696 120.698C567.79 118.477 572.166 115.473 575.823 111.686C579.61 107.767 582.549 103.196 584.639 97.9713C586.729 92.7468 587.774 87.0652 587.774 80.9264C587.774 74.7876 586.663 69.1713 584.443 64.0774C582.353 58.8529 579.414 54.3468 575.627 50.5591C571.839 46.7713 567.333 43.8325 562.108 41.7427C557.014 39.5223 551.398 38.4121 545.259 38.4121C539.512 38.4121 534.092 39.5223 528.998 41.7427C524.035 43.9631 519.659 47.0325 515.872 50.9509C512.084 54.7386 509.08 59.2448 506.859 64.4693C504.77 69.5631 503.725 75.0489 503.725 80.9264ZM874.62 40.7631V78.3795H849.738C841.117 78.3795 834.652 76.8121 830.342 73.6774C826.032 70.5427 823.877 65.8407 823.877 59.5713C823.877 53.3019 826.032 48.5999 830.342 45.4652C834.652 42.3305 841.117 40.7631 849.738 40.7631H874.62Z" fill="#262696"/>
</svg>
